<?xml version="1.0" encoding="UTF-8"?>
<svg xmlns="http://www.w3.org/2000/svg" width="1518" height="1544" viewBox="326 178 1518 1544" fill="none">
  <defs>
    <mask id="ring-mask">
      <rect x="326" y="178" width="1518" height="1544" fill="#FFFFFF" />
      <rect x="834.5" y="1600" width="498.5" height="122" fill="#000000" />
    </mask>
    <clipPath id="bullet-left-clip" clipPathUnits="userSpaceOnUse">
      <rect x="326" y="178" width="760" height="1544" />
    </clipPath>
  </defs>
  <ellipse cx="1083.75" cy="949.25" rx="728.75" ry="742.25" stroke="#FFFFFF" stroke-width="57" mask="url(#ring-mask)" />
  <path id="bullet-shape" clip-path="url(#bullet-left-clip)" d="M1086.63037109 329.36108398 C1081.69658002 334.90899086 1077.6214235 340.81527089 1073.625 347.0625 C1072.96943115 348.07965088 1072.3138623 349.09680176 1071.63842773 350.14477539 C1063.7082553 362.49854148 1056.37170494 374.83823633 1049.95751953 388.04541016 C1048.76791658 390.47375314 1047.5371155 392.88061407 1046.30737305 395.28881836 C1035.27017985 417.02506607 1025.31157693 439.0772229 1017 462 C1016.49703358 463.36773908 1015.99342602 464.73524252 1015.48925781 466.10253906 C1006.78748586 489.75099411 999.40603195 513.63121508 993 538 C992.82660095 538.65812683 992.6532019 539.31625366 992.47454834 539.99432373 C974.95063883 606.76612742 966.58402804 675.05703854 965.34106445 743.97998047 C965.32490082 744.80370148 965.30873718 745.62742249 965.29208374 746.47610474 C965.26240974 748.01385593 965.23636454 749.55168347 965.2147522 751.08956909 C965.13502415 755.1506169 964.775702 759.01246187 964 763 C962.9275 763.2475 961.855 763.495 960.75 763.75 C956.37323739 765.20892087 954.06533712 766.86932575 952 771 C951.91528241 773.0346412 951.89737994 775.07216518 951.90907288 777.10853577 C951.91373566 778.41300659 951.91839844 779.71747742 951.92320251 781.06147766 C951.93324862 782.51632697 951.94330449 783.97117621 951.95336914 785.42602539 C951.96015774 786.95223759 951.96636942 788.47845245 951.9720459 790.00466919 C951.98129873 792.4486538 951.99104686 794.89262941 952.00262368 797.33660424 C952.03144647 803.42571878 952.04297417 809.51468671 952.04405212 815.60386658 C952.04432477 816.93195873 952.04432477 816.93195873 952.04460293 818.28688103 C952.04505317 821.94388751 952.04497034 825.60089386 952.0447675 829.25790036 C952.04503093 839.60278097 952.06128014 849.94705624 952.12670898 860.29174805 C952.1785868 868.51234442 952.19412761 876.73215486 952.16924757 884.95288843 C952.15743064 889.29313642 952.1625342 893.63170893 952.21193123 897.97172737 C952.4269768 917.94410875 951.35330441 934.05778263 942.26011276 952.33298492 C940.09862218 956.90775643 938.45136872 961.66635478 936.76953125 966.43359375 C936.10551919 968.27564364 935.44089457 970.11747295 934.77539062 971.95898438 C934.12077264 973.78504117 933.46647622 975.61121327 932.8125 977.4375 C931.48861085 981.12475965 930.16145727 984.81082698 928.83203125 988.49609375 C928.51243439 989.38469086 928.19283752 990.27328796 927.86355591 991.18881226 C926.31866313 995.45970292 924.73717263 999.70929239 923.06005859 1003.93017578 C922.74703293 1004.71844254 922.43400726 1005.50670929 922.11149597 1006.31886292 C921.53329197 1007.76316886 920.94855392 1009.20489023 920.35493469 1010.64292908 C915.03303322 1023.89691493 914.56817974 1036.23397373 914.61231995 1050.3245697 C914.60814343 1052.49530915 914.60266418 1054.66604642 914.59600013 1056.83677965 C914.58156872 1062.78184104 914.5857831 1068.72676352 914.59316695 1074.67183244 C914.59790195 1081.09116624 914.58538586 1087.51047013 914.57514954 1093.92979431 C914.55895578 1105.77179302 914.55651466 1117.61374356 914.56145453 1129.455751 C914.56601633 1140.39719355 914.56540674 1151.3386197 914.55961418 1162.28006172 C914.55885731 1163.74921398 914.55810133 1165.21836624 914.55734624 1166.6875185 C914.55620101 1168.90154399 914.55505113 1171.11556948 914.55388699 1173.32959496 C914.54318651 1193.90562111 914.53845217 1214.48164181 914.54635715 1235.05766964 C914.54665433 1235.83283411 914.5469515 1236.60799857 914.54725768 1237.40665287 C914.54970648 1243.70105469 914.55231813 1249.99545644 914.55494181 1256.28985819 C914.56504454 1280.84227193 914.55668653 1305.39461728 914.53344727 1329.94702148 C914.50736343 1357.54921017 914.49452961 1385.1513577 914.50163502 1412.75355917 C914.50235105 1415.69774694 914.50302544 1418.64193472 914.50367546 1421.58612251 C914.50384527 1422.31102516 914.50401508 1423.03592781 914.50419003 1423.78279721 C914.50649091 1434.71495942 914.49852622 1445.64708335 914.48538399 1456.57923698 C914.47046157 1469.01417409 914.47001848 1481.4490152 914.4874549 1493.88395064 C914.49597207 1500.22681411 914.49809658 1506.56950656 914.48280334 1512.91236115 C914.46896832 1518.72238579 914.47370463 1524.53209269 914.49304258 1530.3420989 C914.49680645 1532.44020703 914.49386954 1534.53834054 914.48343093 1536.63642608 C914.40026444 1554.63690264 917.01947945 1567.11401692 928.125 1581.8125 C935.03146873 1590.95341449 938.48820994 1599.31550877 938 1611 C937.07988028 1614.61568172 935.43332845 1617.03476305 932.265625 1619.16796875 C930.21526009 1620.23825923 928.1340554 1621.10822264 926 1622 C924.4084565 1622.7005783 922.81859975 1623.40500122 921.23046875 1624.11328125 C920.43406982 1624.46817627 919.6376709 1624.82307129 918.81713867 1625.1887207 C917.91765503 1625.59030396 917.91765503 1625.59030396 917 1626 C916.94891371 1632.49207158 916.91410566 1638.98409052 916.89013672 1645.47631836 C916.88013484 1647.68076515 916.86652901 1649.88519886 916.84912109 1652.08959961 C916.82461547 1655.27460984 916.81345845 1658.4594433 916.8046875 1661.64453125 C916.78920364 1663.10147148 916.78920364 1663.10147148 916.77340698 1664.58784485 C916.67208675 1677.61549491 916.67208675 1677.61549491 922 1689 C924.42897915 1690.29821397 924.42897915 1690.29821397 927.375 1691 C928.54675781 1691.32097656 929.71851563 1691.64195313 930.92578125 1691.97265625 C932.28345346 1692.31668938 933.64155153 1692.65904492 935 1693 C935.73009277 1693.19062012 936.46018555 1693.38124023 937.21240234 1693.57763672 C965.06522843 1700.81948821 993.82254128 1705.25263341 1022.46435547 1707.88037109 C1025.13187714 1708.12563231 1027.79834875 1708.38055958 1030.46484375 1708.63671875 C1050.3941236 1710.52516972 1070.16705273 1711.23985915 1090.1875 1711.25 C1091.39486816 1711.25067474 1092.60223633 1711.25134949 1093.84619141 1711.25204468 C1115.36396057 1711.23307801 1136.61137182 1710.33193263 1158 1708 C1158.80850403 1707.91278687 1159.61700806 1707.82557373 1160.45001221 1707.73571777 C1182.89422561 1705.29483079 1204.94942878 1701.88499247 1227 1697 C1228.19544434 1696.74573242 1229.39088867 1696.49146484 1230.62255859 1696.22949219 C1234.10770814 1695.48708789 1237.58563212 1694.71767399 1241.0625 1693.9375 C1242.09810059 1693.71650635 1243.13370117 1693.4955127 1244.20068359 1693.26782227 C1249.81675843 1691.95349226 1253.36385862 1690.78321278 1257 1686 C1260.45788845 1678.21975098 1260.14233067 1669.50814418 1260.09765625 1661.15625 C1260.0962413 1660.14655151 1260.09482635 1659.13685303 1260.09336853 1658.09655762 C1260.08780781 1654.89767389 1260.0752627 1651.69886228 1260.0625 1648.5 C1260.05747992 1646.32031352 1260.0529179 1644.14062593 1260.04882812 1641.9609375 C1260.03785128 1636.64060074 1260.02115268 1631.32030552 1260 1626 C1258.58182922 1625.20116892 1257.16228885 1624.40476899 1255.7421875 1623.609375 C1254.95183105 1623.16561523 1254.16147461 1622.72185547 1253.34716797 1622.26464844 C1249.3651072 1620.1191237 1245.2939704 1618.43132347 1241 1617 C1237.47795155 1610.57744106 1239.12902918 1603.02754661 1240.61328125 1596.1640625 C1242.5828805 1589.79786965 1246.0505231 1585.08947038 1250.20458984 1579.99414062 C1257.89718852 1570.38481944 1261.15323257 1560.40354353 1261.1398077 1548.16342068 C1261.14275912 1547.26880533 1261.14571055 1546.37418999 1261.14875141 1545.45246509 C1261.15744922 1542.43912123 1261.15902369 1539.42581572 1261.16062927 1536.41246033 C1261.16535983 1534.23625379 1261.17051068 1532.06004812 1261.17604691 1529.88384348 C1261.18996281 1523.8909204 1261.19753942 1517.89800341 1261.2040199 1511.90506828 C1261.21038877 1506.76762225 1261.22045927 1501.63018621 1261.23058056 1496.49274641 C1261.26391685 1479.56299026 1261.28547181 1462.63322809 1261.30378041 1445.70344982 C1261.30855012 1441.29405461 1261.31355851 1436.8846597 1261.31858563 1432.47526479 C1261.34963988 1405.08862476 1261.37624923 1377.70198227 1261.39300442 1350.31532955 C1261.39694146 1343.97055494 1261.40095334 1337.62578038 1261.4050293 1331.28100586 C1261.40553096 1330.49276884 1261.40603263 1329.70453183 1261.4065495 1328.89240885 C1261.4229525 1303.35961292 1261.46138767 1277.82691308 1261.5123164 1252.29416438 C1261.56460753 1226.03034575 1261.59732922 1199.76657827 1261.60458195 1173.50270655 C1261.60561045 1169.78824292 1261.60684675 1166.07377939 1261.60820198 1162.35931587 C1261.60846002 1161.62832708 1261.60871806 1160.89733829 1261.60898391 1160.14419832 C1261.61366773 1148.40922152 1261.63855652 1136.67437182 1261.67095341 1124.93944249 C1261.70308664 1113.12708039 1261.71242928 1101.31487286 1261.70052146 1089.50247221 C1261.69470848 1083.11009145 1261.69846339 1076.71810716 1261.7286911 1070.32578659 C1261.75619211 1064.46196304 1261.75545039 1058.59881503 1261.73318065 1052.73497552 C1261.72997651 1050.62508259 1261.73671472 1048.51514328 1261.75497787 1046.40532696 C1261.86997048 1032.25126962 1259.77246244 1020.32458867 1255 1007 C1254.45993628 1005.40459276 1254.45993628 1005.40459276 1253.90896219 1003.77695507 C1253.13996271 1001.51034913 1252.32455562 999.26840455 1251.484375 997.02734375 C1251.18676773 996.21797867 1250.88916046 995.40861359 1250.58253479 994.57472229 C1249.64411617 992.02680866 1248.69736623 989.48209843 1247.75 986.9375 C1247.08828776 985.14731944 1246.42708007 983.35695229 1245.76635742 981.56640625 C1244.45795545 978.02338084 1243.14621973 974.48161964 1241.83154297 970.94091797 C1240.1901833 966.51810723 1238.56311443 962.09020272 1236.94140625 957.66015625 C1236.06527565 955.27337455 1235.18898714 952.8866508 1234.3125 950.5 C1233.92739258 949.44675537 1233.54228516 948.39351074 1233.14550781 947.30834961 C1232.60361816 945.8408728 1232.60361816 945.8408728 1232.05078125 944.34375 C1231.74825439 943.52068359 1231.44572754 942.69761719 1231.1340332 941.84960938 C1230.13291236 939.14128343 1230.13291236 939.14128343 1229.03121471 937.3024559 C1225.10138086 929.95674529 1225.45284265 922.46730257 1225.51757812 914.37011719 C1225.51538915 912.80056418 1225.51138768 911.23101282 1225.50572205 909.66146851 C1225.49719323 906.29750305 1225.50088884 902.93385755 1225.5141449 899.56990814 C1225.53455607 894.24972674 1225.52447351 888.92986486 1225.5098877 883.60968018 C1225.4831907 872.32309104 1225.48985905 861.03660713 1225.5 849.75 C1225.51095203 837.54982962 1225.51620075 825.34982439 1225.48270559 813.14968228 C1225.46933238 807.86136962 1225.47528971 802.57353885 1225.49607086 797.28525496 C1225.50505083 793.99847895 1225.49758899 790.71188919 1225.48565865 787.42512894 C1225.48352667 785.9017359 1225.48825599 784.37831543 1225.5003643 782.85496902 C1225.51596941 780.77445401 1225.50701203 778.6954167 1225.49206543 776.6149292 C1225.49432758 774.86953417 1225.49432758 774.86953417 1225.49663544 773.08887863 C1224.89356553 769.33801914 1223.64454193 767.67917611 1221 765 C1218.68189443 763.99424463 1218.68189443 763.99424463 1216.25 763.6875 C1215.45078125 763.54699219 1214.6515625 763.40648437 1213.828125 763.26171875 C1212.92320312 763.13216797 1212.92320312 763.13216797 1212 763 C1211.98018066 761.96109619 1211.96036133 760.92219238 1211.93994141 759.85180664 C1211.17577138 720.95149773 1208.60526811 682.63684498 1204 644 C1203.91298828 643.26676514 1203.82597656 642.53353027 1203.73632812 641.77807617 C1198.97447518 601.87851039 1191.54545396 561.27666056 1179.83349609 522.79980469 C1178.86790878 519.55629113 1177.95816621 516.29933308 1177.05078125 513.0390625 C1162.33926085 460.52251298 1142.13819985 407.24226745 1113 361 C1112.41863281 360.05382812 1111.83726562 359.10765625 1111.23828125 358.1328125 C1104.76258399 347.71735537 1097.78064122 336.64638066 1089 328 C1087.79640015 327.88251822 1087.79640015 327.88251822 1086.63037109 329.36108398 Z" fill="#FFFFFF" />
  <g transform="translate(2167.5 0) scale(-1 1)">
    <use href="#bullet-shape" />
  </g>
</svg>
